<svg xmlns="http://www.w3.org/2000/svg" viewBox="0 0 24 24" role="img" aria-label="rule-type-windows">
  <!-- High-contrast alt icon: brand-windows -->
  <title>rule type windows alt high contrast</title>
  <g stroke="currentColor" stroke-width="3" stroke-linecap="round" stroke-linejoin="round">
    <path fill="none" d="M17.8 20l-12 -1.5c-1 -.1 -1.8 -.9 -1.8 -1.9v-9.2c0 -1 .8 -1.8 1.8 -1.9l12 -1.5c1.2 -.1 2.2 .8 2.2 1.9v12.1c0 1.2 -1.1 2.1 -2.2 1.9l0 .1" />
    <rect x="5.4" y="6.9" width="5.3" height="4.3" rx="0.8" fill="currentColor" fill-opacity="0.22" stroke="none" />
    <rect x="13.2" y="6.9" width="5.3" height="4.3" rx="0.8" fill="currentColor" fill-opacity="0.22" stroke="none" />
    <rect x="5.4" y="12.8" width="5.3" height="4.3" rx="0.8" fill="currentColor" fill-opacity="0.22" stroke="none" />
    <rect x="13.2" y="12.8" width="5.3" height="4.3" rx="0.8" fill="currentColor" fill-opacity="0.22" stroke="none" />
    <path fill="none" d="M12 5l0 14" />
    <path fill="none" d="M4 12l16 0" />
  </g>
</svg>
