<svg xmlns="http://www.w3.org/2000/svg" viewBox="0 0 24 24" role="img" aria-label="log-level-debug">
  <!-- Source icon: Tabler Icons (MIT), name: bug -->
  <defs>
    <linearGradient id="nrr-grad" x1="0" y1="0" x2="24" y2="24">
      <stop offset="0" stop-color="var(--nrr-icon-start, #8B5CF6)"/>
      <stop offset="1" stop-color="var(--nrr-icon-end, #4F46E5)"/>
    </linearGradient>
  </defs>
  <style>
    :root {
      --nrr-icon-start: #8B5CF6;
      --nrr-icon-end: #4F46E5;
      --nrr-icon-stroke-width: 2.2;
    }
    @media (prefers-color-scheme: dark) {
      :root {
        --nrr-icon-start: #A78BFA;
        --nrr-icon-end: #818CF8;
      }
    }
    @media (prefers-contrast: more) {
      :root {
        --nrr-icon-start: #0F172A;
        --nrr-icon-end: #0F172A;
        --nrr-icon-stroke-width: 2.8;
      }
    }
    @media (prefers-contrast: more) and (prefers-color-scheme: dark) {
      :root {
        --nrr-icon-start: #FFFFFF;
        --nrr-icon-end: #FFFFFF;
      }
    }
  </style>
  <title>log level debug</title>
  <g fill="none" stroke="url(#nrr-grad)" stroke-width="var(--nrr-icon-stroke-width)" stroke-linecap="round" stroke-linejoin="round">
    <path d="M9 9v-1a3 3 0 0 1 6 0v1" />
    <path d="M8 9h8a6 6 0 0 1 1 3v3a5 5 0 0 1 -10 0v-3a6 6 0 0 1 1 -3" />
    <path d="M3 13l4 0" />
    <path d="M17 13l4 0" />
    <path d="M12 20l0 -6" />
    <path d="M4 19l3.35 -2" />
    <path d="M20 19l-3.35 -2" />
    <path d="M4 7l3.75 2.4" />
    <path d="M20 7l-3.75 2.4" />
  </g>
</svg>
