<svg xmlns="http://www.w3.org/2000/svg" viewBox="0 0 24 24" role="img" aria-label="rule-type-macos">
  <!-- Source icon: Tabler Icons (MIT), name: brand-finder -->
  <defs>
    <linearGradient id="nrr-grad" x1="0" y1="0" x2="24" y2="24">
      <stop offset="0" stop-color="var(--nrr-icon-start, #1EA7FF)"/>
      <stop offset="1" stop-color="var(--nrr-icon-end, #8A3FFC)"/>
    </linearGradient>
  </defs>
  <style>
    :root {
      --nrr-icon-start: #1EA7FF;
      --nrr-icon-end: #8A3FFC;
      --nrr-icon-stroke-width: 2.2;
    }
    @media (prefers-color-scheme: dark) {
      :root {
        --nrr-icon-start: #59D0FF;
        --nrr-icon-end: #B18CFF;
      }
    }
    @media (prefers-contrast: more) {
      :root {
        --nrr-icon-start: #000000;
        --nrr-icon-end: #000000;
        --nrr-icon-stroke-width: 2.8;
      }
    }
    @media (prefers-contrast: more) and (prefers-color-scheme: dark) {
      :root {
        --nrr-icon-start: #ffffff;
        --nrr-icon-end: #ffffff;
      }
    }
  </style>
  <title>rule type macos alt</title>
  <g fill="none" stroke="url(#nrr-grad)" stroke-width="var(--nrr-icon-stroke-width)" stroke-linecap="round" stroke-linejoin="round">
    <path d="M3 5a1 1 0 0 1 1 -1h16a1 1 0 0 1 1 1v14a1 1 0 0 1 -1 1h-16a1 1 0 0 1 -1 -1l0 -14" />
    <path d="M7 8v1" />
    <path d="M17 8v1" />
    <path d="M12.5 4c-.654 1.486 -1.26 3.443 -1.5 9h2.5c-.19 2.867 .094 5.024 .5 7" />
    <path d="M7 15.5c3.667 2 6.333 2 10 0" />
  </g>
</svg>
