<svg xmlns="http://www.w3.org/2000/svg" viewBox="0 0 24 24" role="img" aria-label="rule-type-windows">
  <!-- Source icon: Tabler Icons (MIT), name: brand-windows -->
  <defs>
    <linearGradient id="nrr-grad" x1="0" y1="0" x2="24" y2="24">
      <stop offset="0" stop-color="var(--nrr-icon-start, #1EA7FF)"/>
      <stop offset="1" stop-color="var(--nrr-icon-end, #8A3FFC)"/>
    </linearGradient>
  </defs>
  <style>
    :root {
      --nrr-icon-start: #1EA7FF;
      --nrr-icon-end: #8A3FFC;
      --nrr-icon-stroke-width: 2.2;
      --nrr-icon-fill-opacity: 0.22;
    }
    @media (prefers-color-scheme: dark) {
      :root {
        --nrr-icon-start: #59D0FF;
        --nrr-icon-end: #B18CFF;
        --nrr-icon-fill-opacity: 0.28;
      }
    }
    @media (prefers-contrast: more) {
      :root {
        --nrr-icon-start: #000000;
        --nrr-icon-end: #000000;
        --nrr-icon-stroke-width: 2.8;
        --nrr-icon-fill-opacity: 0.26;
      }
    }
    @media (prefers-contrast: more) and (prefers-color-scheme: dark) {
      :root {
        --nrr-icon-start: #ffffff;
        --nrr-icon-end: #ffffff;
        --nrr-icon-fill-opacity: 0.26;
      }
    }
  </style>
  <title>rule type windows alt</title>
  <g stroke="url(#nrr-grad)" stroke-width="var(--nrr-icon-stroke-width)" stroke-linecap="round" stroke-linejoin="round">
    <path fill="none" d="M17.8 20l-12 -1.5c-1 -.1 -1.8 -.9 -1.8 -1.9v-9.2c0 -1 .8 -1.8 1.8 -1.9l12 -1.5c1.2 -.1 2.2 .8 2.2 1.9v12.1c0 1.2 -1.1 2.1 -2.2 1.9l0 .1" />
    <rect x="5.4" y="6.9" width="5.3" height="4.3" rx="0.8" fill="url(#nrr-grad)" fill-opacity="var(--nrr-icon-fill-opacity)" stroke="none" />
    <rect x="13.2" y="6.9" width="5.3" height="4.3" rx="0.8" fill="url(#nrr-grad)" fill-opacity="var(--nrr-icon-fill-opacity)" stroke="none" />
    <rect x="5.4" y="12.8" width="5.3" height="4.3" rx="0.8" fill="url(#nrr-grad)" fill-opacity="var(--nrr-icon-fill-opacity)" stroke="none" />
    <rect x="13.2" y="12.8" width="5.3" height="4.3" rx="0.8" fill="url(#nrr-grad)" fill-opacity="var(--nrr-icon-fill-opacity)" stroke="none" />
    <path fill="none" d="M12 5l0 14" />
    <path fill="none" d="M4 12l16 0" />
  </g>
</svg>
