<svg xmlns="http://www.w3.org/2000/svg" viewBox="0 0 24 24" role="img" aria-label="settings">
  <!-- Source icon: Tabler Icons (MIT), name: settings -->
  <defs>
    <linearGradient id="nrr-grad" x1="0" y1="0" x2="24" y2="24">
      <stop offset="0" stop-color="var(--nrr-icon-start, #1EA7FF)"/>
      <stop offset="1" stop-color="var(--nrr-icon-end, #8A3FFC)"/>
    </linearGradient>
  </defs>
  <style>
    :root {
      --nrr-icon-start: #1EA7FF;
      --nrr-icon-end: #8A3FFC;
      --nrr-icon-stroke-width: 2.2;
    }
    @media (prefers-color-scheme: dark) {
      :root {
        --nrr-icon-start: #59D0FF;
        --nrr-icon-end: #B18CFF;
      }
    }
    @media (prefers-contrast: more) {
      :root {
        --nrr-icon-start: #000000;
        --nrr-icon-end: #000000;
        --nrr-icon-stroke-width: 2.8;
      }
    }
    @media (prefers-contrast: more) and (prefers-color-scheme: dark) {
      :root {
        --nrr-icon-start: #ffffff;
        --nrr-icon-end: #ffffff;
      }
    }
  </style>
  <title>settings</title>
  <g fill="none" stroke="url(#nrr-grad)" stroke-width="var(--nrr-icon-stroke-width)" stroke-linecap="round" stroke-linejoin="round">
    <path d="M10.325 4.317c.426 -1.756 2.924 -1.756 3.35 0a1.724 1.724 0 0 0 2.573 1.066c1.543 -.94 3.31 .826 2.37 2.37a1.724 1.724 0 0 0 1.065 2.572c1.756 .426 1.756 2.924 0 3.35a1.724 1.724 0 0 0 -1.066 2.573c.94 1.543 -.826 3.31 -2.37 2.37a1.724 1.724 0 0 0 -2.572 1.065c-.426 1.756 -2.924 1.756 -3.35 0a1.724 1.724 0 0 0 -2.573 -1.066c-1.543 .94 -3.31 -.826 -2.37 -2.37a1.724 1.724 0 0 0 -1.065 -2.572c-1.756 -.426 -1.756 -2.924 0 -3.35a1.724 1.724 0 0 0 1.066 -2.573c-.94 -1.543 .826 -3.31 2.37 -2.37c1 .608 2.296 .07 2.572 -1.065" />
  <path d="M9 12a3 3 0 1 0 6 0a3 3 0 0 0 -6 0" />
  </g>
</svg>
