<svg xmlns="http://www.w3.org/2000/svg" viewBox="0 0 24 24" role="img" aria-label="tray-error">
  <!-- Source icon: Tabler Icons (MIT), name: alert-octagon -->
  <defs>
    <linearGradient id="nrr-grad" x1="0" y1="0" x2="24" y2="24">
      <stop offset="0" stop-color="var(--nrr-icon-start, #FF5E5E)"/>
      <stop offset="1" stop-color="var(--nrr-icon-end, #FF8A3D)"/>
    </linearGradient>
  </defs>
  <style>
    :root {
      --nrr-icon-start: #FF5E5E;
      --nrr-icon-end: #FF8A3D;
      --nrr-icon-stroke-width: 2.2;
    }
    @media (prefers-color-scheme: dark) {
      :root {
        --nrr-icon-start: #FF9A9A;
        --nrr-icon-end: #FFC06F;
      }
    }
    @media (prefers-contrast: more) {
      :root {
        --nrr-icon-start: #000000;
        --nrr-icon-end: #000000;
        --nrr-icon-stroke-width: 2.8;
      }
    }
    @media (prefers-contrast: more) and (prefers-color-scheme: dark) {
      :root {
        --nrr-icon-start: #ffffff;
        --nrr-icon-end: #ffffff;
      }
    }
  </style>
  <title>tray-error</title>
  <g fill="none" stroke="url(#nrr-grad)" stroke-width="var(--nrr-icon-stroke-width)" stroke-linecap="round" stroke-linejoin="round">
    <path d="M12.802 2.165l5.575 2.389c.48 .206 .863 .589 1.07 1.07l2.388 5.574c.22 .512 .22 1.092 0 1.604l-2.389 5.575c-.206 .48 -.589 .863 -1.07 1.07l-5.574 2.388c-.512 .22 -1.092 .22 -1.604 0l-5.575 -2.389a2.036 2.036 0 0 1 -1.07 -1.07l-2.388 -5.574a2.036 2.036 0 0 1 0 -1.604l2.389 -5.575c.206 -.48 .589 -.863 1.07 -1.07l5.574 -2.388a2.036 2.036 0 0 1 1.604 0" />
  <path d="M12 8v4" />
  <path d="M12 16h.01" />
  </g>
</svg>
